<svg width="24" height="24" viewBox="0 0 24 24" fill="none" xmlns="http://www.w3.org/2000/svg">
<g clip-path="url(#clip0_100_3252)">
<path d="M17 23H5C2.79 23 1 21.21 1 19V7C1 4.79 2.79 3 5 3H9C9.55 3 10 3.45 10 4C10 4.55 9.55 5 9 5H5C3.9 5 3 5.9 3 7V19C3 20.1 3.9 21 5 21H17C18.1 21 19 20.1 19 19V15C19 14.45 19.45 14 20 14C20.55 14 21 14.45 21 15V19C21 21.21 19.21 23 17 23Z" fill="#F0F1F3"/>
<path d="M18.8798 1.59012L11.2898 9.18012C11.1698 9.30012 11.0798 9.46012 11.0298 9.63012L10.2498 12.5301C10.0498 13.2701 10.7298 13.9501 11.4698 13.7501L14.3698 12.9701C14.5398 12.9201 14.6898 12.8401 14.8198 12.7101L22.4098 5.12012C23.1898 4.34012 23.1898 3.07012 22.4098 2.29012L21.6998 1.58012C20.9198 0.800117 19.6498 0.800117 18.8698 1.58012L18.8798 1.59012Z" fill="#F0F1F3"/>
</g>
<defs>
<clipPath id="clip0_100_3252">
<rect width="24" height="24" fill="white"/>
</clipPath>
</defs>
</svg>
