<svg xmlns="http://www.w3.org/2000/svg" width="24" height="24" viewBox="0 0 24 24" fill="none">
  <path d="M6.827 6.17499C6.64699 6.4599 6.40682 6.70197 6.12334 6.88423C5.83985 7.06648 5.51993 7.18449 5.186 7.22999C4.806 7.28399 4.429 7.34199 4.052 7.40499C2.999 7.57999 2.25 8.50699 2.25 9.57399V18C2.25 18.5967 2.48705 19.169 2.90901 19.591C3.33097 20.0129 3.90326 20.25 4.5 20.25H19.5C20.0967 20.25 20.669 20.0129 21.091 19.591C21.5129 19.169 21.75 18.5967 21.75 18V9.57399C21.75 8.50699 21 7.57999 19.948 7.40499C19.5707 7.34213 19.1927 7.28379 18.814 7.22999C18.4802 7.18435 18.1605 7.06627 17.8772 6.88403C17.5939 6.70178 17.3539 6.45978 17.174 6.17499L16.352 4.85899C16.1674 4.55909 15.9132 4.30809 15.611 4.12723C15.3089 3.94637 14.9675 3.84098 14.616 3.81999C12.8733 3.72638 11.1267 3.72638 9.384 3.81999C9.03245 3.84098 8.69114 3.94637 8.38896 4.12723C8.08678 4.30809 7.83262 4.55909 7.648 4.85899L6.827 6.17499Z" fill="#855AFF"/>
  <path d="M16.5 12.75C16.5 13.9435 16.0259 15.0881 15.182 15.932C14.3381 16.7759 13.1935 17.25 12 17.25C10.8065 17.25 9.66193 16.7759 8.81802 15.932C7.97411 15.0881 7.5 13.9435 7.5 12.75C7.5 11.5565 7.97411 10.4119 8.81802 9.56802C9.66193 8.72411 10.8065 8.25 12 8.25C13.1935 8.25 14.3381 8.72411 15.182 9.56802C16.0259 10.4119 16.5 11.5565 16.5 12.75ZM18.75 10.5H18.758V10.508H18.75V10.5Z" stroke="white" stroke-linecap="round" stroke-linejoin="round"/>
</svg>