<svg xmlns="http://www.w3.org/2000/svg" width="16" height="16" viewBox="0 0 16 16" fill="none">
  <path d="M13.4875 1.8458C13.1593 1.51768 12.7142 1.33334 12.2502 1.33334C11.7861 1.33334 11.341 1.51768 11.0128 1.8458L10.2415 2.61714L12.7162 5.0918L13.4875 4.32047C13.8156 3.99229 14 3.54721 14 3.08314C14 2.61906 13.8156 2.17398 13.4875 1.8458ZM12.0088 5.79914L9.53417 3.32447L1.43417 11.4245C1.02274 11.8357 0.720288 12.343 0.55417 12.9005L0.0208364 14.6905C-0.00491284 14.7768 -0.00683329 14.8686 0.0152783 14.956C0.0373899 15.0433 0.0827112 15.1231 0.146447 15.1869C0.210182 15.2506 0.289961 15.2959 0.377342 15.318C0.464724 15.3401 0.556457 15.3382 0.642836 15.3125L2.43284 14.7791C2.99032 14.613 3.49761 14.3106 3.90884 13.8991L12.0088 5.79914Z" fill="#855AFF"/>
</svg>