<svg xmlns="http://www.w3.org/2000/svg" width="24" height="24" viewBox="0 0 24 24" fill="none">
    <path d="M9 6.74952V14.9995M15 8.99952V17.2495M15.503 20.7475L20.378 18.3105C20.759 18.1205 21 17.7305 21 17.3045V4.81952C21 3.98352 20.12 3.43952 19.372 3.81352L15.503 5.74752C15.186 5.90652 14.813 5.90652 14.497 5.74752L9.503 3.25152C9.34682 3.17346 9.17461 3.13281 9 3.13281C8.82539 3.13281 8.65318 3.17346 8.497 3.25152L3.622 5.68852C3.24 5.87952 3 6.26952 3 6.69452V19.1795C3 20.0155 3.88 20.5595 4.628 20.1855L8.497 18.2515C8.814 18.0925 9.187 18.0925 9.503 18.2515L14.497 20.7485C14.814 20.9065 15.187 20.9065 15.503 20.7485V20.7475Z" stroke="#7B61FF" stroke-width="1.5" stroke-linecap="round" stroke-linejoin="round"/>
</svg>
