<svg width="24" height="24" viewBox="0 0 24 24" fill="none" xmlns="http://www.w3.org/2000/svg">
<path d="M19 7.5V10.5M19 10.5V13.5M19 10.5H22M19 10.5H16M13.75 6.375C13.75 6.81821 13.6627 7.25708 13.4931 7.66656C13.3235 8.07603 13.0749 8.44809 12.7615 8.76149C12.4481 9.07488 12.076 9.32348 11.6666 9.49309C11.2571 9.6627 10.8182 9.75 10.375 9.75C9.93179 9.75 9.49292 9.6627 9.08344 9.49309C8.67397 9.32348 8.30191 9.07488 7.98851 8.76149C7.67512 8.44809 7.42652 8.07603 7.25691 7.66656C7.0873 7.25708 7 6.81821 7 6.375C7 5.47989 7.35558 4.62145 7.98851 3.98851C8.62145 3.35558 9.47989 3 10.375 3C11.2701 3 12.1285 3.35558 12.7615 3.98851C13.3944 4.62145 13.75 5.47989 13.75 6.375ZM4 19.235V19.125C4 17.4342 4.67165 15.8127 5.86719 14.6172C7.06274 13.4216 8.68424 12.75 10.375 12.75C12.0658 12.75 13.6873 13.4216 14.8828 14.6172C16.0784 15.8127 16.75 17.4342 16.75 19.125V19.234C14.8255 20.3931 12.6206 21.0038 10.374 21C8.043 21 5.862 20.355 4 19.234V19.235Z" stroke="#C3C6CC" stroke-width="1.5" stroke-linecap="round" stroke-linejoin="round"/>
</svg>
