<svg xmlns="http://www.w3.org/2000/svg" width="20" height="20" viewBox="0 0 20 20" fill="none">
  <mask id="path-1-inside-1_242_4432" fill="white">
    <path d="M10.015 1.999C10.4348 1.999 10.8546 2.14893 11.1944 2.43878L17.4113 7.88606C17.7911 8.21589 18.011 8.69565 18.011 9.1954V16.2419C18.011 17.2114 17.2114 17.991 16.2319 17.991H13.5632V12.5237C13.5632 11.6242 12.8336 10.8946 11.934 10.8946H8.07596C7.17641 10.8946 6.44678 11.6242 6.44678 12.5237V18.001H3.77811C2.7986 18.001 1.999 17.2114 1.999 16.2419V9.1954C1.999 8.69565 2.21889 8.21589 2.5987 7.88606L8.81559 2.43878C9.15542 2.14893 9.57521 1.999 9.995 1.999M9.995 0C9.07546 0 8.18591 0.329835 7.49625 0.93953L1.27936 6.38681C0.469765 7.09645 0 8.12594 0 9.1954V16.2419C0 18.3108 1.68916 19.99 3.77811 19.99H6.43678L8.44578 20V12.8936H11.5542V20H13.5632L16.2319 19.99C18.3108 19.99 20 18.3108 20 16.2419V9.1954C20 8.11594 19.5302 7.09645 18.7206 6.38681L12.5037 0.93953C11.8141 0.33983 10.9245 0 10.005 0H9.995Z"/>
  </mask>
  <path d="M10.015 1.999C10.4348 1.999 10.8546 2.14893 11.1944 2.43878L17.4113 7.88606C17.7911 8.21589 18.011 8.69565 18.011 9.1954V16.2419C18.011 17.2114 17.2114 17.991 16.2319 17.991H13.5632V12.5237C13.5632 11.6242 12.8336 10.8946 11.934 10.8946H8.07596C7.17641 10.8946 6.44678 11.6242 6.44678 12.5237V18.001H3.77811C2.7986 18.001 1.999 17.2114 1.999 16.2419V9.1954C1.999 8.69565 2.21889 8.21589 2.5987 7.88606L8.81559 2.43878C9.15542 2.14893 9.57521 1.999 9.995 1.999M9.995 0C9.07546 0 8.18591 0.329835 7.49625 0.93953L1.27936 6.38681C0.469765 7.09645 0 8.12594 0 9.1954V16.2419C0 18.3108 1.68916 19.99 3.77811 19.99H6.43678L8.44578 20V12.8936H11.5542V20H13.5632L16.2319 19.99C18.3108 19.99 20 18.3108 20 16.2419V9.1954C20 8.11594 19.5302 7.09645 18.7206 6.38681L12.5037 0.93953C11.8141 0.33983 10.9245 0 10.005 0H9.995Z" fill="#C3C6CC"/>
  <path d="M11.1944 2.43878L11.3921 2.21312L11.3891 2.21053L11.1944 2.43878ZM17.4113 7.88606L17.2136 8.1117L17.2146 8.11257L17.4113 7.88606ZM13.5632 17.991H13.2632V18.291H13.5632V17.991ZM6.44678 18.001V18.301H6.74678V18.001H6.44678ZM2.5987 7.88606L2.79541 8.11257L2.79641 8.1117L2.5987 7.88606ZM8.81559 2.43878L8.62089 2.21051L8.61789 2.21314L8.81559 2.43878ZM7.49625 0.93953L7.69396 1.16517L7.69495 1.16429L7.49625 0.93953ZM1.27936 6.38681L1.08165 6.16117L1.08161 6.16121L1.27936 6.38681ZM6.43678 19.99L6.43827 19.69H6.43678V19.99ZM8.44578 20L8.44429 20.3L8.74578 20.3015V20H8.44578ZM8.44578 12.8936V12.5936H8.14578V12.8936H8.44578ZM11.5542 12.8936H11.8542V12.5936H11.5542V12.8936ZM11.5542 20H11.2542V20.3H11.5542V20ZM13.5632 20L13.5632 20.3L13.5643 20.3L13.5632 20ZM16.2319 19.99L16.2319 19.69L16.2308 19.69L16.2319 19.99ZM18.7206 6.38681L18.9184 6.16121L18.9183 6.16117L18.7206 6.38681ZM12.5037 0.93953L12.7015 0.713891L12.7006 0.713149L12.5037 0.93953ZM10.015 2.299C10.3633 2.299 10.7141 2.42344 10.9997 2.66703L11.3891 2.21053C10.995 1.87441 10.5062 1.699 10.015 1.699V2.299ZM10.9967 2.66442L17.2136 8.1117L17.609 7.66042L11.3921 2.21314L10.9967 2.66442ZM17.2146 8.11257C17.5294 8.38592 17.711 8.78331 17.711 9.1954H18.311C18.311 8.608 18.0529 8.04587 17.608 7.65955L17.2146 8.11257ZM17.711 9.1954V16.2419H18.311V9.1954H17.711ZM17.711 16.2419C17.711 17.0402 17.0513 17.691 16.2319 17.691V18.291C17.3715 18.291 18.311 17.3826 18.311 16.2419H17.711ZM16.2319 17.691H13.5632V18.291H16.2319V17.691ZM13.8632 17.991V12.5237H13.2632V17.991H13.8632ZM13.8632 12.5237C13.8632 11.4585 12.9993 10.5946 11.934 10.5946V11.1946C12.6679 11.1946 13.2632 11.7899 13.2632 12.5237H13.8632ZM11.934 10.5946H8.07596V11.1946H11.934V10.5946ZM8.07596 10.5946C7.01073 10.5946 6.14678 11.4585 6.14678 12.5237H6.74678C6.74678 11.7899 7.3421 11.1946 8.07596 11.1946V10.5946ZM6.14678 12.5237V18.001H6.74678V12.5237H6.14678ZM6.44678 17.701H3.77811V18.301H6.44678V17.701ZM3.77811 17.701C2.96097 17.701 2.299 17.0424 2.299 16.2419H1.699C1.699 17.3804 2.63623 18.301 3.77811 18.301V17.701ZM2.299 16.2419V9.1954H1.699V16.2419H2.299ZM2.299 9.1954C2.299 8.78331 2.48064 8.38592 2.79541 8.11257L2.40199 7.65955C1.95714 8.04587 1.699 8.608 1.699 9.1954H2.299ZM2.79641 8.1117L9.0133 2.66442L8.61789 2.21314L2.401 7.66042L2.79641 8.1117ZM9.01028 2.66703C9.29587 2.42344 9.64665 2.299 9.995 2.299V1.699C9.50377 1.699 9.01497 1.87441 8.62091 2.21053L9.01028 2.66703ZM9.995 -0.3C9.00378 -0.3 8.04317 0.0556014 7.29755 0.714769L7.69495 1.16429C8.32865 0.604069 9.14714 0.3 9.995 0.3V-0.3ZM7.29855 0.713892L1.08165 6.16117L1.47707 6.61244L7.69396 1.16517L7.29855 0.713892ZM1.08161 6.16121C0.207713 6.92722 -0.3 8.03862 -0.3 9.1954H0.3C0.3 8.21326 0.731817 7.26569 1.47711 6.61241L1.08161 6.16121ZM-0.3 9.1954V16.2419H0.3V9.1954H-0.3ZM-0.3 16.2419C-0.3 18.4786 1.52555 20.29 3.77811 20.29V19.69C1.85276 19.69 0.3 18.1431 0.3 16.2419H-0.3ZM3.77811 20.29H6.43678V19.69H3.77811V20.29ZM6.43529 20.29L8.44429 20.3L8.44727 19.7L6.43827 19.69L6.43529 20.29ZM8.74578 20V12.8936H8.14578V20H8.74578ZM8.44578 13.1936H11.5542V12.5936H8.44578V13.1936ZM11.2542 12.8936V20H11.8542V12.8936H11.2542ZM11.5542 20.3H13.5632V19.7H11.5542V20.3ZM13.5643 20.3L16.233 20.29L16.2308 19.69L13.5621 19.7L13.5643 20.3ZM16.2319 20.29C18.475 20.29 20.3 18.4781 20.3 16.2419H19.7C19.7 18.1436 18.1467 19.69 16.2319 19.69V20.29ZM20.3 16.2419V9.1954H19.7V16.2419H20.3ZM20.3 9.1954C20.3 8.02819 19.792 6.92693 18.9184 6.16121L18.5229 6.61241C19.2685 7.26597 19.7 8.20369 19.7 9.1954H20.3ZM18.9183 6.16117L12.7015 0.713892L12.306 1.16517L18.5229 6.61244L18.9183 6.16117ZM12.7006 0.713149C11.9574 0.0668644 10.9982 -0.3 10.005 -0.3V0.3C10.8508 0.3 11.6708 0.612796 12.3069 1.16591L12.7006 0.713149ZM10.005 -0.3H9.995V0.3H10.005V-0.3Z" fill="#C3C6CC" mask="url(#path-1-inside-1_242_4432)"/>
</svg>