<svg width="24" height="24" viewBox="0 0 24 24" fill="none" xmlns="http://www.w3.org/2000/svg">
<g clip-path="url(#clip0_242_4443)">
<path d="M12 4C13.66 4 15 5.34 15 7C15 8.66 13.66 10 12 10C10.34 10 9 8.66 9 7C9 5.34 10.34 4 12 4ZM12 2C9.24 2 7 4.24 7 7C7 9.76 9.24 12 12 12C14.76 12 17 9.76 17 7C17 4.24 14.76 2 12 2Z" fill="#C3C6CC"/>
<path d="M12.0001 13C15.6901 13 18.8201 15.03 19.9001 17.84C20.3001 18.89 19.4801 20 18.3301 20H5.67008C4.52008 20 3.70008 18.88 4.10008 17.84C5.18008 15.03 8.31008 13 12.0001 13ZM12.0001 11C7.57008 11 3.65008 13.46 2.24008 17.12C1.82008 18.21 1.97008 19.44 2.63008 20.41C3.32008 21.41 4.45008 22 5.67008 22H18.3301C19.5501 22 20.6801 21.4 21.3701 20.41C22.0401 19.44 22.1801 18.21 21.7601 17.12C20.3501 13.46 16.4301 11 12.0001 11Z" fill="#C3C6CC"/>
</g>
<defs>
<clipPath id="clip0_242_4443">
<rect width="24" height="24" fill="white"/>
</clipPath>
</defs>
</svg>
