<svg xmlns="http://www.w3.org/2000/svg" width="16" height="16" viewBox="0 0 16 16" fill="none">
  <path d="M4.422 7C4.95934 7 5.444 6.70267 5.776 6.28C6.29351 5.61975 6.94314 5.07479 7.68334 4.68C8.16534 4.424 8.58334 4.04267 8.78534 3.53667C8.92721 3.18217 9.00007 2.80383 9 2.422V2C9 1.86739 9.05268 1.74021 9.14645 1.64645C9.24022 1.55268 9.36739 1.5 9.5 1.5C9.89783 1.5 10.2794 1.65804 10.5607 1.93934C10.842 2.22064 11 2.60218 11 3C11 3.768 10.8267 4.49533 10.518 5.14533C10.3407 5.51733 10.5893 6 11.0013 6H13.0853C13.7693 6 14.382 6.46267 14.4547 7.14333C14.4847 7.42467 14.5 7.71 14.5 8C14.5028 9.82423 13.8794 11.5942 12.734 13.014C12.4753 13.3353 12.076 13.5 11.664 13.5H8.98667C8.66467 13.5 8.344 13.448 8.038 13.3467L5.962 12.6533C5.65607 12.5516 5.33574 12.4998 5.01334 12.5H3.936M9.5 6H11ZM3.936 12.5C3.99134 12.6367 4.05134 12.77 4.116 12.9013C4.24734 13.168 4.064 13.5 3.76734 13.5H3.162C2.56934 13.5 2.02 13.1547 1.84734 12.588C1.61643 11.8302 1.49938 11.0422 1.5 10.25C1.5 9.21467 1.69667 8.226 2.054 7.318C2.258 6.802 2.778 6.5 3.33334 6.5H4.03534C4.35 6.5 4.532 6.87067 4.36867 7.14C3.79926 8.0773 3.49895 9.1533 3.50067 10.25C3.50067 11.046 3.65467 11.8053 3.936 12.5Z" fill="#FF0000"/>
</svg>