<svg width="24" height="24" viewBox="0 0 24 24" fill="none" xmlns="http://www.w3.org/2000/svg">
<path d="M12 7.5H13.5M12 10.5H13.5M6 13.5H13.5M6 16.5H13.5M16.5 7.5H19.875C20.496 7.5 21 8.004 21 8.625V18C21 18.5967 20.7629 19.169 20.341 19.591C19.919 20.0129 19.3467 20.25 18.75 20.25M16.5 7.5V18C16.5 18.5967 16.7371 19.169 17.159 19.591C17.581 20.0129 18.1533 20.25 18.75 20.25M16.5 7.5V4.875C16.5 4.254 15.996 3.75 15.375 3.75H4.125C3.504 3.75 3 4.254 3 4.875V18C3 18.5967 3.23705 19.169 3.65901 19.591C4.08097 20.0129 4.65326 20.25 5.25 20.25H18.75M6 7.5H9V10.5H6V7.5Z" stroke="#C3C6CC" stroke-width="1.5" stroke-linecap="round" stroke-linejoin="round"/>
</svg>
